<svg width="520" height="513" viewBox="0 0 520 513" fill="none" xmlns="http://www.w3.org/2000/svg">
<path fill-rule="evenodd" clip-rule="evenodd" d="M237.962 1.29214C316.825 -8.72011 392.357 40.7549 439.737 104.589C485.203 165.845 491.988 245.238 474.062 319.387C456.457 392.208 413.853 458.072 346.399 490.671C278.837 523.323 199.775 517.731 132.521 484.449C66.201 451.629 9.73153 393.087 0.778803 319.634C-7.43117 252.275 51.067 203.201 91.6091 148.786C135.145 90.3527 165.673 10.4698 237.962 1.29214Z" fill="#F0609E"/>
<path fill-rule="evenodd" clip-rule="evenodd" d="M390.882 172.432C385.52 175.664 380.251 177.225 377.778 176.588C371.577 174.989 371.007 152.303 375.805 143.359C380.603 134.416 405.27 130.517 406.514 148.238C406.945 154.388 404.363 159.876 400.547 164.355L407.389 196.242H387.516L390.882 172.432Z" fill="#B28B67"/>
<path fill-rule="evenodd" clip-rule="evenodd" d="M383.654 133.618C386.37 132.79 390.312 132.51 391.97 132.7C391.027 130.44 390.652 127.922 390.958 125.47C391.254 123.088 392.319 121.059 393.303 118.934C393.757 117.954 394.271 116.98 395.038 116.23C395.819 115.467 396.808 114.963 397.845 114.722C398.906 114.476 400.015 114.497 401.078 114.72C401.548 114.819 401.969 115.034 402.43 115.153C402.903 115.276 403.132 114.98 403.474 114.683C404.3 113.968 405.511 113.615 406.556 113.488C407.728 113.346 408.944 113.523 410.062 113.908C411.15 114.284 412.195 114.893 412.982 115.78C413.332 116.175 413.65 116.625 413.857 117.121C413.942 117.325 413.956 117.446 414.159 117.52C414.347 117.589 414.567 117.591 414.761 117.657C416.637 118.292 418.241 119.742 419.115 121.603C419.624 122.689 419.866 124.601 419.8 126.744C419.733 128.887 417.799 134.478 415.989 136.517C414.374 138.338 411.999 139.539 409.708 140.065C411.229 141.803 412.241 143.976 412.99 146.185C413.803 148.585 414.306 151.079 414.492 153.619C414.669 156.034 414.685 158.586 414.119 160.949C413.59 163.158 412.458 164.971 410.568 166.12C409.702 166.647 408.77 167.043 407.833 167.404C406.91 167.761 405.984 168.107 405.017 168.307C403.186 168.686 401.077 168.621 399.667 167.164C399.159 166.638 398.6 165.978 398.229 165.337C398.096 165.106 398.016 164.955 398.178 164.73C398.372 164.459 398.686 164.252 398.935 164.041C400.356 162.836 401.236 161.228 401.458 159.316C401.683 157.377 401.162 154.873 399.276 154.027C396.948 152.982 394.385 154.181 392.316 155.299C391.437 152.196 389.632 149.402 386.801 147.978C383.67 146.404 380.076 146.219 376.858 144.868C376.02 144.516 375.166 144.116 374.548 143.399C374.29 143.099 373.988 142.71 373.885 142.314C373.749 141.793 374.085 141.356 374.345 140.95C375.721 138.797 380.939 134.446 383.654 133.618Z" fill="#101010"/>
<path fill-rule="evenodd" clip-rule="evenodd" d="M316.134 326.798C317.675 343.641 316.135 379.845 315.306 390.289C314.785 396.852 305.84 395.134 305.005 389.881C304.863 388.991 304.287 385.864 303.427 381.199C299.21 358.325 288.172 298.458 288.153 283.901C288.144 277.226 303.005 271.889 308.95 279.952C313.838 276.519 320.776 275.598 325.053 282.532C328.291 287.782 335.985 302.684 344.191 320.087C351.379 335.332 362.612 372.34 362.612 372.34L353.076 376.697C353.076 376.697 329.52 338.824 314.689 312.271C315.181 316.84 315.67 321.732 316.134 326.798Z" fill="#B28B67"/>
<path fill-rule="evenodd" clip-rule="evenodd" d="M361.93 358.639L329.2 281.104C321.359 268.491 299.376 283.671 302.05 290.986C308.12 307.594 338.994 361.362 340.802 366.31L361.93 358.639Z" fill="#272627"/>
<path fill-rule="evenodd" clip-rule="evenodd" d="M287.325 289.955C287.325 311.932 296.958 363.591 296.964 368.43L320.3 367.643C320.3 367.643 314.181 300.272 315.139 299.815C316.577 299.13 374.05 307.77 391.288 308.422C416.144 309.363 426.427 294.114 427.261 265.176H379.113C379.113 265.176 317.358 272.547 297.936 275.43C289.622 276.664 287.325 283.901 287.325 289.955Z" fill="#423D41"/>
<path fill-rule="evenodd" clip-rule="evenodd" d="M361.154 369.794C362.087 369.087 363.439 369.24 364.086 370.216C365.05 371.672 366.277 373.688 366.593 374.959C367.135 377.132 367.451 381.482 367.451 381.482C364.93 382.11 322.136 392.78 322.136 392.78C322.136 392.78 318.914 387.381 322.603 385.967C326.293 384.552 328.716 383.549 328.716 383.549L347.298 369.017C347.742 368.67 348.384 368.758 348.719 369.212L350.786 372.016C350.786 372.016 354.719 372.781 356.922 372.232C358.163 371.923 359.885 370.755 361.154 369.794Z" fill="#E4E4E4"/>
<path fill-rule="evenodd" clip-rule="evenodd" d="M313.933 377.136C315.01 376.676 316.285 377.151 316.676 378.255C317.26 379.901 317.962 382.154 317.962 383.463C317.962 385.703 317.216 390 317.216 390C314.617 390 270.513 390 270.513 390C270.513 390 268.693 383.982 272.615 383.502C276.537 383.022 279.131 382.635 279.131 382.635L300.677 373.03C301.191 372.801 301.794 373.042 302.008 373.563L303.336 376.784C303.336 376.784 306.967 378.478 309.237 378.478C310.516 378.478 312.47 377.762 313.933 377.136Z" fill="#E4E4E4"/>
<rect width="43.8854" height="5.79617" rx="2.89809" transform="matrix(-1 0 0 1 317.134 390)" fill="#151415"/>
<path d="M438.025 279.936C438.025 274.413 433.548 269.936 428.025 269.936H342.866C337.343 269.936 332.866 274.413 332.866 279.936V318.79H434.025C436.235 318.79 438.025 316.999 438.025 314.79V279.936Z" fill="#151415"/>
<path fill-rule="evenodd" clip-rule="evenodd" d="M341.146 269.936H340.79C335.893 269.936 331.716 273.483 330.923 278.316L312.994 387.516H321.842" fill="#151415"/>
<path fill-rule="evenodd" clip-rule="evenodd" d="M317.134 404.076C308.902 404.076 302.229 397.403 302.229 389.172C302.229 380.94 308.902 374.268 317.134 374.268C325.365 374.268 332.038 380.94 332.038 389.172C332.038 397.403 325.365 404.076 317.134 404.076Z" fill="#0E0D0E"/>
<path fill-rule="evenodd" clip-rule="evenodd" d="M364.331 339.49C364.331 374.246 392.506 402.42 427.261 402.42C462.016 402.42 490.191 374.246 490.191 339.49C490.191 304.735 462.016 276.56 427.261 276.56C392.506 276.56 364.331 304.735 364.331 339.49ZM375.924 339.49C375.924 367.843 398.908 390.828 427.261 390.828C455.614 390.828 478.599 367.843 478.599 339.49C478.599 311.137 455.614 288.153 427.261 288.153C398.908 288.153 375.924 311.137 375.924 339.49Z" fill="#0E0D0E"/>
<rect width="6.62421" height="109.299" transform="matrix(-1 0 0 1 430.573 284.841)" fill="#0E0D0E"/>
<rect width="6.6242" height="109.299" rx="2" transform="matrix(-0.707107 0.707107 0.707107 0.707107 390.96 298.505)" fill="#0E0D0E"/>
<rect width="6.62421" height="109.299" rx="2" transform="matrix(0 1 1 0 372.611 336.178)" fill="#0E0D0E"/>
<rect width="6.6242" height="109.299" rx="2" transform="matrix(0.707107 0.707107 0.707107 -0.707107 386.276 375.792)" fill="#0E0D0E"/>
<path fill-rule="evenodd" clip-rule="evenodd" d="M311.867 170.542L343.253 179.964L335.24 193.313L310.837 178.952C299.446 178.273 294.063 177.15 294.69 175.581C295.219 174.259 296.477 174.033 297.635 173.826C298.538 173.664 299.38 173.513 299.771 172.863C300.662 171.377 297.537 167.511 294.414 163.968C291.291 160.426 293.79 160.261 295.3 160.545C300.49 162.652 306.013 165.984 311.867 170.542ZM319.614 254.694L346.026 235.298L351.865 249.732L325.71 260.578C318.312 269.267 314.176 272.889 313.3 271.445C312.562 270.227 313.139 269.086 313.671 268.036C314.085 267.218 314.471 266.454 314.187 265.751C313.537 264.145 308.568 264.314 303.86 264.676C299.151 265.038 300.523 262.943 301.659 261.909C306.465 259.032 312.45 256.627 319.614 254.694Z" fill="#B28B67"/>
<path fill-rule="evenodd" clip-rule="evenodd" d="M387.052 183.066C372.668 209.885 351.869 230.444 321.716 251.816L333.133 264.689C366.8 252.177 384.569 244.629 393.295 219.29C395.485 212.93 397.015 192.657 398.328 181.991L387.052 183.066Z" fill="#FBAD11"/>
<path fill-rule="evenodd" clip-rule="evenodd" d="M427.261 272.42H363.503C363.503 272.42 385.167 206.351 385.636 181.728C385.652 180.891 387.198 179.417 387.881 179.61C395.382 181.728 403.934 178.025 403.934 178.025C419.049 202.335 424.276 232.265 427.261 272.42Z" fill="#F2F2F2"/>
<path fill-rule="evenodd" clip-rule="evenodd" d="M387.941 215.113C377.983 257.828 378.442 292.795 400.427 292.795H434.423C439.822 256.509 425.632 206.198 412.476 180.821C411.974 179.852 410.904 178.025 408.385 178.025H398.507C398.502 178.039 398.498 178.052 398.493 178.065C395.521 178.089 392.247 178.198 388.702 178.315C370.452 178.921 345.004 179.766 316.37 170.573L312.994 187.443C338.839 204.065 365.009 216.942 387.941 215.113Z" fill="#FCB932"/>
<path fill-rule="evenodd" clip-rule="evenodd" d="M139.882 86.9362C146.396 88.8089 152.345 88.9632 154.754 87.604C160.794 84.196 155.041 60.3401 147.518 52.3434C139.995 44.3466 113.098 47.1896 116.757 66.0472C118.027 72.5921 122.264 77.6011 127.51 81.2095L129.277 116.434L150.067 110.863L139.882 86.9362Z" fill="#784931"/>
<path fill-rule="evenodd" clip-rule="evenodd" d="M136.58 44.3693C133.507 44.2656 129.305 45.0773 127.623 45.7405C127.978 43.1155 127.664 40.3805 126.659 37.9052C125.682 35.5001 124.001 33.6798 122.376 31.7356C121.627 30.8394 120.816 29.9658 119.804 29.398C118.773 28.8195 117.598 28.5703 116.446 28.6098C115.267 28.6502 114.112 28.9826 113.063 29.5137C112.599 29.7487 112.218 30.0914 111.769 30.3455C111.309 30.6057 110.987 30.3612 110.545 30.1471C109.481 29.6312 108.116 29.6016 106.987 29.7624C105.721 29.9429 104.498 30.4686 103.437 31.1845C102.403 31.8813 101.48 32.8106 100.905 33.9581C100.65 34.4689 100.443 35.0276 100.365 35.6041C100.334 35.8406 100.353 35.9706 100.161 36.1055C99.9838 36.2304 99.7543 36.2941 99.5697 36.4172C97.7847 37.6068 96.5123 39.5707 96.1194 41.7597C95.8902 43.0367 96.1728 45.1013 96.8417 47.321C97.5106 49.5407 101.1 54.8385 103.564 56.4614C105.763 57.91 108.583 58.4992 111.128 58.4061C110.023 60.6483 109.572 63.2012 109.407 65.7188C109.228 68.4535 109.399 71.1993 109.916 73.9053C110.407 76.4762 111.104 79.1473 112.358 81.4564C113.53 83.6156 115.221 85.1913 117.521 85.8625C118.574 86.17 119.659 86.3222 120.74 86.4373C121.806 86.5507 122.872 86.653 123.94 86.5907C125.961 86.4728 128.149 85.8137 129.216 83.8966C129.601 83.2055 130.001 82.3595 130.209 81.5853C130.284 81.3069 130.326 81.1268 130.093 80.9366C129.815 80.7088 129.429 80.5806 129.109 80.4297C127.284 79.5697 125.914 78.1362 125.147 76.2017C124.369 74.2389 124.213 71.4781 125.949 70.0653C128.092 68.3214 131.109 68.8556 133.586 69.4434C133.638 65.9555 134.744 62.5309 137.307 60.2506C140.142 57.7278 143.85 56.5281 146.839 54.2146C147.617 53.6118 148.399 52.9549 148.844 52.0325C149.03 51.647 149.238 51.1559 149.235 50.7128C149.23 50.1308 148.757 49.7688 148.372 49.4173C146.329 47.554 139.653 44.4729 136.58 44.3693Z" fill="#0E0D0E"/>
<path fill-rule="evenodd" clip-rule="evenodd" d="M133.838 188.194L166.352 302.112L190.075 386.077H207.377L182.168 188.194H133.838Z" fill="#151415"/>
<path fill-rule="evenodd" clip-rule="evenodd" d="M125.143 188.194C124.39 246.909 121.826 278.933 121.036 284.268C120.247 289.602 108.307 323.539 85.2178 386.077H103.142C132.537 326.082 148.945 292.146 152.368 284.268C155.791 276.39 166.355 244.365 182.266 188.194H125.143Z" fill="#272627"/>
<path fill-rule="evenodd" clip-rule="evenodd" d="M83.6158 402.194L84.5126 383.39L103.346 383.39C116.741 392.792 138.322 398.612 138.322 398.612V402.194H104.243L92.584 400.403V402.194H83.6158Z" fill="#0E0D0E"/>
<path fill-rule="evenodd" clip-rule="evenodd" d="M187.647 402.194L188.544 383.39L207.377 383.39C220.773 392.792 242.353 398.612 242.353 398.612V402.194H208.274L196.615 400.403V402.194H187.647Z" fill="#0E0D0E"/>
<path fill-rule="evenodd" clip-rule="evenodd" d="M72.1028 236.444C74.5446 231.031 84.5383 176.291 84.5383 176.291L100.581 175.801C100.581 175.801 85.0147 234.802 83.7508 238.272C82.1091 242.779 85.3839 249.129 87.6045 253.435C87.948 254.101 88.2663 254.718 88.5373 255.272C85.7114 256.656 84.2788 255.154 82.7684 253.571C81.0625 251.782 79.2574 249.89 75.2336 251.934C73.679 252.723 72.214 253.644 70.7826 254.543C65.8384 257.649 61.2964 260.502 54.8559 256.839C53.8348 256.258 52.6588 253.977 55.2428 252.072C61.6805 247.326 70.9091 239.09 72.1028 236.444ZM237.626 182.634L206.986 164.769L202.327 180.953L231.724 189.653C240.673 198.16 245.537 201.587 246.317 199.934C246.975 198.54 246.225 197.379 245.534 196.31C244.995 195.477 244.493 194.7 244.72 193.911C245.238 192.11 250.609 191.729 255.722 191.585C260.835 191.44 259.12 189.343 257.78 188.359C252.278 185.809 245.56 183.901 237.626 182.634Z" fill="#784931"/>
<path fill-rule="evenodd" clip-rule="evenodd" d="M138.693 101.093L147.822 96.1838C166.753 126.659 191.957 154.932 229.447 175.956L223.806 191.34C192.025 179.483 162.448 171.133 146.906 147.672C141.69 139.798 140.188 111.345 138.693 101.093Z" fill="#C5CFD6"/>
<path fill-rule="evenodd" clip-rule="evenodd" d="M121.675 199.259C121.675 199.259 164.102 196.324 187.24 187.698C189.151 186.986 188.881 183.629 187.57 181.549C167.151 149.166 151.999 120.441 147.725 96.2008C144.147 98.8695 134.087 99.2164 134.087 99.2164C120.903 127.297 117.873 157.384 121.675 199.259Z" fill="#E300BB"/>
<path fill-rule="evenodd" clip-rule="evenodd" d="M128.677 98.0114C129.077 97.626 129.29 97.4317 129.29 97.4317L129.345 97.8937L136.675 96.6012C137.424 98.699 139.377 106.62 142.225 118.169C152.573 160.139 174.735 250.027 193.905 282.541L103.991 298.396C98.9091 258.483 105.179 208.575 113.233 165.716C104.017 178.784 94.25 199.688 89.1657 232.516L71.5627 231.169C75.706 154.302 119.277 107.353 127.836 98.8361C127.892 98.5995 127.949 98.3641 128.004 98.13L128.677 98.0114Z" fill="#DDE3E9"/>
</svg>
