<svg width="1747" height="1286" viewBox="0 0 1747 1286" fill="none" xmlns="http://www.w3.org/2000/svg">
<path d="M68 431H300" stroke="black"/>
<path d="M1671 1283L1742 1212L1671 1141L1600 1212L1656.21 1268.21L1712.42 1212L1671 1170.58L1629.58 1212L1656.21 1238.62L1682.83 1212L1671 1200.17L1659.17 1212" stroke="#051B4F" stroke-width="7"/>
<path d="M1671 1141L1742 1070L1671 999L1600 1070L1656.21 1126.21L1712.42 1070L1671 1028.58L1629.58 1070L1656.21 1096.62L1682.83 1070L1671 1058.17L1659.17 1070" stroke="#051B4F" stroke-width="7"/>
<path d="M1671 999L1742 928L1671 857L1600 928L1656.21 984.208L1712.42 928L1671 886.583L1629.58 928L1656.21 954.625L1682.83 928L1671 916.167L1659.17 928" stroke="#051B4F" stroke-width="7"/>
<path d="M1671 857L1742 786L1671 715L1600 786L1656.21 842.208L1712.42 786L1671 744.583L1629.58 786L1656.21 812.625L1682.83 786L1671 774.167L1659.17 786" stroke="#051B4F" stroke-width="7"/>
<path d="M1671 715L1742 644L1671 573L1600 644L1656.21 700.208L1712.42 644L1671 602.583L1629.58 644L1656.21 670.625L1682.83 644L1671 632.167L1659.17 644" stroke="#051B4F" stroke-width="7"/>
<path d="M1671 573L1742 502L1671 431L1600 502L1656.21 558.208L1712.42 502L1671 460.583L1629.58 502L1656.21 528.625L1682.83 502L1671 490.167L1659.17 502" stroke="#051B4F" stroke-width="7"/>
<path d="M1671 431L1742 360L1671 289L1600 360L1656.21 416.208L1712.42 360L1671 318.583L1629.58 360L1656.21 386.625L1682.83 360L1671 348.167L1659.17 360" stroke="#051B4F" stroke-width="7"/>
<path d="M1671 289L1742 218L1671 147L1600 218L1656.21 274.208L1712.42 218L1671 176.583L1629.58 218L1656.21 244.625L1682.83 218L1671 206.167L1659.17 218" stroke="#051B4F" stroke-width="7"/>
<path d="M1671 147L1742 76L1671 5L1600 76L1656.21 132.208L1712.42 76L1671 34.5833L1629.58 76L1656.21 102.625L1682.83 76L1671 64.1667L1659.17 76" stroke="#051B4F" stroke-width="7"/>
<path d="M1526 1283L1597 1212L1526 1141L1455 1212L1511.21 1268.21L1567.42 1212L1526 1170.58L1484.58 1212L1511.21 1238.62L1537.83 1212L1526 1200.17L1514.17 1212" stroke="#051B4F" stroke-width="7"/>
<path d="M1526 1141L1597 1070L1526 999L1455 1070L1511.21 1126.21L1567.42 1070L1526 1028.58L1484.58 1070L1511.21 1096.62L1537.83 1070L1526 1058.17L1514.17 1070" stroke="#051B4F" stroke-width="7"/>
<path d="M1526 999L1597 928L1526 857L1455 928L1511.21 984.208L1567.42 928L1526 886.583L1484.58 928L1511.21 954.625L1537.83 928L1526 916.167L1514.17 928" stroke="#051B4F" stroke-width="7"/>
<path d="M1526 857L1597 786L1526 715L1455 786L1511.21 842.208L1567.42 786L1526 744.583L1484.58 786L1511.21 812.625L1537.83 786L1526 774.167L1514.17 786" stroke="#051B4F" stroke-width="7"/>
<path d="M1526 715L1597 644L1526 573L1455 644L1511.21 700.208L1567.42 644L1526 602.583L1484.58 644L1511.21 670.625L1537.83 644L1526 632.167L1514.17 644" stroke="#051B4F" stroke-width="7"/>
<path d="M1526 573L1597 502L1526 431L1455 502L1511.21 558.208L1567.42 502L1526 460.583L1484.58 502L1511.21 528.625L1537.83 502L1526 490.167L1514.17 502" stroke="#051B4F" stroke-width="7"/>
<path d="M1526 431L1597 360L1526 289L1455 360L1511.21 416.208L1567.42 360L1526 318.583L1484.58 360L1511.21 386.625L1537.83 360L1526 348.167L1514.17 360" stroke="#051B4F" stroke-width="7"/>
<path d="M1526 289L1597 218L1526 147L1455 218L1511.21 274.208L1567.42 218L1526 176.583L1484.58 218L1511.21 244.625L1537.83 218L1526 206.167L1514.17 218" stroke="#051B4F" stroke-width="7"/>
<path d="M1526 147L1597 76L1526 5L1455 76L1511.21 132.208L1567.42 76L1526 34.5833L1484.58 76L1511.21 102.625L1537.83 76L1526 64.1667L1514.17 76" stroke="#051B4F" stroke-width="7"/>
<path d="M1381 1283L1452 1212L1381 1141L1310 1212L1366.21 1268.21L1422.42 1212L1381 1170.58L1339.58 1212L1366.21 1238.62L1392.83 1212L1381 1200.17L1369.17 1212" stroke="#051B4F" stroke-width="7"/>
<path d="M1381 1141L1452 1070L1381 999L1310 1070L1366.21 1126.21L1422.42 1070L1381 1028.58L1339.58 1070L1366.21 1096.62L1392.83 1070L1381 1058.17L1369.17 1070" stroke="#051B4F" stroke-width="7"/>
<path d="M1381 999L1452 928L1381 857L1310 928L1366.21 984.208L1422.42 928L1381 886.583L1339.58 928L1366.21 954.625L1392.83 928L1381 916.167L1369.17 928" stroke="#051B4F" stroke-width="7"/>
<path d="M1381 857L1452 786L1381 715L1310 786L1366.21 842.208L1422.42 786L1381 744.583L1339.58 786L1366.21 812.625L1392.83 786L1381 774.167L1369.17 786" stroke="#051B4F" stroke-width="7"/>
<path d="M1381 715L1452 644L1381 573L1310 644L1366.21 700.208L1422.42 644L1381 602.583L1339.58 644L1366.21 670.625L1392.83 644L1381 632.167L1369.17 644" stroke="#051B4F" stroke-width="7"/>
<path d="M1381 573L1452 502L1381 431L1310 502L1366.21 558.208L1422.42 502L1381 460.583L1339.58 502L1366.21 528.625L1392.83 502L1381 490.167L1369.17 502" stroke="#051B4F" stroke-width="7"/>
<path d="M1381 431L1452 360L1381 289L1310 360L1366.21 416.208L1422.42 360L1381 318.583L1339.58 360L1366.21 386.625L1392.83 360L1381 348.167L1369.17 360" stroke="#051B4F" stroke-width="7"/>
<path d="M1381 289L1452 218L1381 147L1310 218L1366.21 274.208L1422.42 218L1381 176.583L1339.58 218L1366.21 244.625L1392.83 218L1381 206.167L1369.17 218" stroke="#051B4F" stroke-width="7"/>
<path d="M1381 147L1452 76L1381 5L1310 76L1366.21 132.208L1422.42 76L1381 34.5833L1339.58 76L1366.21 102.625L1392.83 76L1381 64.1667L1369.17 76" stroke="#051B4F" stroke-width="7"/>
<path d="M1236 1283L1307 1212L1236 1141L1165 1212L1221.21 1268.21L1277.42 1212L1236 1170.58L1194.58 1212L1221.21 1238.62L1247.83 1212L1236 1200.17L1224.17 1212" stroke="#051B4F" stroke-width="7"/>
<path d="M1236 1141L1307 1070L1236 999L1165 1070L1221.21 1126.21L1277.42 1070L1236 1028.58L1194.58 1070L1221.21 1096.62L1247.83 1070L1236 1058.17L1224.17 1070" stroke="#051B4F" stroke-width="7"/>
<path d="M1236 999L1307 928L1236 857L1165 928L1221.21 984.208L1277.42 928L1236 886.583L1194.58 928L1221.21 954.625L1247.83 928L1236 916.167L1224.17 928" stroke="#051B4F" stroke-width="7"/>
<path d="M1236 857L1307 786L1236 715L1165 786L1221.21 842.208L1277.42 786L1236 744.583L1194.58 786L1221.21 812.625L1247.83 786L1236 774.167L1224.17 786" stroke="#051B4F" stroke-width="7"/>
<path d="M1236 715L1307 644L1236 573L1165 644L1221.21 700.208L1277.42 644L1236 602.583L1194.58 644L1221.21 670.625L1247.83 644L1236 632.167L1224.17 644" stroke="#051B4F" stroke-width="7"/>
<path d="M1236 573L1307 502L1236 431L1165 502L1221.21 558.208L1277.42 502L1236 460.583L1194.58 502L1221.21 528.625L1247.83 502L1236 490.167L1224.17 502" stroke="#051B4F" stroke-width="7"/>
<path d="M1236 431L1307 360L1236 289L1165 360L1221.21 416.208L1277.42 360L1236 318.583L1194.58 360L1221.21 386.625L1247.83 360L1236 348.167L1224.17 360" stroke="#051B4F" stroke-width="7"/>
<path d="M1236 289L1307 218L1236 147L1165 218L1221.21 274.208L1277.42 218L1236 176.583L1194.58 218L1221.21 244.625L1247.83 218L1236 206.167L1224.17 218" stroke="#051B4F" stroke-width="7"/>
<path d="M1236 147L1307 76L1236 5L1165 76L1221.21 132.208L1277.42 76L1236 34.5833L1194.58 76L1221.21 102.625L1247.83 76L1236 64.1667L1224.17 76" stroke="#051B4F" stroke-width="7"/>
<path d="M1091 1283L1162 1212L1091 1141L1020 1212L1076.21 1268.21L1132.42 1212L1091 1170.58L1049.58 1212L1076.21 1238.62L1102.83 1212L1091 1200.17L1079.17 1212" stroke="#051B4F" stroke-width="7"/>
<path d="M1091 1141L1162 1070L1091 999L1020 1070L1076.21 1126.21L1132.42 1070L1091 1028.58L1049.58 1070L1076.21 1096.62L1102.83 1070L1091 1058.17L1079.17 1070" stroke="#051B4F" stroke-width="7"/>
<path d="M1091 999L1162 928L1091 857L1020 928L1076.21 984.208L1132.42 928L1091 886.583L1049.58 928L1076.21 954.625L1102.83 928L1091 916.167L1079.17 928" stroke="#051B4F" stroke-width="7"/>
<path d="M1091 857L1162 786L1091 715L1020 786L1076.21 842.208L1132.42 786L1091 744.583L1049.58 786L1076.21 812.625L1102.83 786L1091 774.167L1079.17 786" stroke="#051B4F" stroke-width="7"/>
<path d="M1091 715L1162 644L1091 573L1020 644L1076.21 700.208L1132.42 644L1091 602.583L1049.58 644L1076.21 670.625L1102.83 644L1091 632.167L1079.17 644" stroke="#051B4F" stroke-width="7"/>
<path d="M1091 573L1162 502L1091 431L1020 502L1076.21 558.208L1132.42 502L1091 460.583L1049.58 502L1076.21 528.625L1102.83 502L1091 490.167L1079.17 502" stroke="#051B4F" stroke-width="7"/>
<path d="M1091 431L1162 360L1091 289L1020 360L1076.21 416.208L1132.42 360L1091 318.583L1049.58 360L1076.21 386.625L1102.83 360L1091 348.167L1079.17 360" stroke="#051B4F" stroke-width="7"/>
<path d="M1091 289L1162 218L1091 147L1020 218L1076.21 274.208L1132.42 218L1091 176.583L1049.58 218L1076.21 244.625L1102.83 218L1091 206.167L1079.17 218" stroke="#051B4F" stroke-width="7"/>
<path d="M1091 147L1162 76L1091 5L1020 76L1076.21 132.208L1132.42 76L1091 34.5833L1049.58 76L1076.21 102.625L1102.83 76L1091 64.1667L1079.17 76" stroke="#051B4F" stroke-width="7"/>
<path d="M946 1283L1017 1212L946 1141L875 1212L931.208 1268.21L987.417 1212L946 1170.58L904.583 1212L931.208 1238.62L957.833 1212L946 1200.17L934.167 1212" stroke="#051B4F" stroke-width="7"/>
<path d="M946 1141L1017 1070L946 999L875 1070L931.208 1126.21L987.417 1070L946 1028.58L904.583 1070L931.208 1096.62L957.833 1070L946 1058.17L934.167 1070" stroke="#051B4F" stroke-width="7"/>
<path d="M946 999L1017 928L946 857L875 928L931.208 984.208L987.417 928L946 886.583L904.583 928L931.208 954.625L957.833 928L946 916.167L934.167 928" stroke="#051B4F" stroke-width="7"/>
<path d="M946 857L1017 786L946 715L875 786L931.208 842.208L987.417 786L946 744.583L904.583 786L931.208 812.625L957.833 786L946 774.167L934.167 786" stroke="#051B4F" stroke-width="7"/>
<path d="M946 715L1017 644L946 573L875 644L931.208 700.208L987.417 644L946 602.583L904.583 644L931.208 670.625L957.833 644L946 632.167L934.167 644" stroke="#051B4F" stroke-width="7"/>
<path d="M946 573L1017 502L946 431L875 502L931.208 558.208L987.417 502L946 460.583L904.583 502L931.208 528.625L957.833 502L946 490.167L934.167 502" stroke="#051B4F" stroke-width="7"/>
<path d="M946 431L1017 360L946 289L875 360L931.208 416.208L987.417 360L946 318.583L904.583 360L931.208 386.625L957.833 360L946 348.167L934.167 360" stroke="#051B4F" stroke-width="7"/>
<path d="M946 289L1017 218L946 147L875 218L931.208 274.208L987.417 218L946 176.583L904.583 218L931.208 244.625L957.833 218L946 206.167L934.167 218" stroke="#051B4F" stroke-width="7"/>
<path d="M946 147L1017 76L946 5L875 76L931.208 132.208L987.417 76L946 34.5833L904.583 76L931.208 102.625L957.833 76L946 64.1667L934.167 76" stroke="#051B4F" stroke-width="7"/>
<path d="M801 1283L872 1212L801 1141L730 1212L786.208 1268.21L842.417 1212L801 1170.58L759.583 1212L786.208 1238.62L812.833 1212L801 1200.17L789.167 1212" stroke="#051B4F" stroke-width="7"/>
<path d="M801 1141L872 1070L801 999L730 1070L786.208 1126.21L842.417 1070L801 1028.58L759.583 1070L786.208 1096.62L812.833 1070L801 1058.17L789.167 1070" stroke="#051B4F" stroke-width="7"/>
<path d="M801 999L872 928L801 857L730 928L786.208 984.208L842.417 928L801 886.583L759.583 928L786.208 954.625L812.833 928L801 916.167L789.167 928" stroke="#051B4F" stroke-width="7"/>
<path d="M801 857L872 786L801 715L730 786L786.208 842.208L842.417 786L801 744.583L759.583 786L786.208 812.625L812.833 786L801 774.167L789.167 786" stroke="#051B4F" stroke-width="7"/>
<path d="M801 715L872 644L801 573L730 644L786.208 700.208L842.417 644L801 602.583L759.583 644L786.208 670.625L812.833 644L801 632.167L789.167 644" stroke="#051B4F" stroke-width="7"/>
<path d="M801 573L872 502L801 431L730 502L786.208 558.208L842.417 502L801 460.583L759.583 502L786.208 528.625L812.833 502L801 490.167L789.167 502" stroke="#051B4F" stroke-width="7"/>
<path d="M801 431L872 360L801 289L730 360L786.208 416.208L842.417 360L801 318.583L759.583 360L786.208 386.625L812.833 360L801 348.167L789.167 360" stroke="#051B4F" stroke-width="7"/>
<path d="M801 289L872 218L801 147L730 218L786.208 274.208L842.417 218L801 176.583L759.583 218L786.208 244.625L812.833 218L801 206.167L789.167 218" stroke="#051B4F" stroke-width="7"/>
<path d="M801 147L872 76L801 5L730 76L786.208 132.208L842.417 76L801 34.5833L759.583 76L786.208 102.625L812.833 76L801 64.1667L789.167 76" stroke="#051B4F" stroke-width="7"/>
<path d="M656 1283L727 1212L656 1141L585 1212L641.208 1268.21L697.417 1212L656 1170.58L614.583 1212L641.208 1238.62L667.833 1212L656 1200.17L644.167 1212" stroke="#051B4F" stroke-width="7"/>
<path d="M656 1141L727 1070L656 999L585 1070L641.208 1126.21L697.417 1070L656 1028.58L614.583 1070L641.208 1096.62L667.833 1070L656 1058.17L644.167 1070" stroke="#051B4F" stroke-width="7"/>
<path d="M656 999L727 928L656 857L585 928L641.208 984.208L697.417 928L656 886.583L614.583 928L641.208 954.625L667.833 928L656 916.167L644.167 928" stroke="#051B4F" stroke-width="7"/>
<path d="M656 857L727 786L656 715L585 786L641.208 842.208L697.417 786L656 744.583L614.583 786L641.208 812.625L667.833 786L656 774.167L644.167 786" stroke="#051B4F" stroke-width="7"/>
<path d="M656 715L727 644L656 573L585 644L641.208 700.208L697.417 644L656 602.583L614.583 644L641.208 670.625L667.833 644L656 632.167L644.167 644" stroke="#051B4F" stroke-width="7"/>
<path d="M656 573L727 502L656 431L585 502L641.208 558.208L697.417 502L656 460.583L614.583 502L641.208 528.625L667.833 502L656 490.167L644.167 502" stroke="#051B4F" stroke-width="7"/>
<path d="M656 431L727 360L656 289L585 360L641.208 416.208L697.417 360L656 318.583L614.583 360L641.208 386.625L667.833 360L656 348.167L644.167 360" stroke="#051B4F" stroke-width="7"/>
<path d="M656 289L727 218L656 147L585 218L641.208 274.208L697.417 218L656 176.583L614.583 218L641.208 244.625L667.833 218L656 206.167L644.167 218" stroke="#051B4F" stroke-width="7"/>
<path d="M656 147L727 76L656 5L585 76L641.208 132.208L697.417 76L656 34.5833L614.583 76L641.208 102.625L667.833 76L656 64.1667L644.167 76" stroke="#051B4F" stroke-width="7"/>
<path d="M511 1283L582 1212L511 1141L440 1212L496.208 1268.21L552.417 1212L511 1170.58L469.583 1212L496.208 1238.62L522.833 1212L511 1200.17L499.167 1212" stroke="#051B4F" stroke-width="7"/>
<path d="M511 1141L582 1070L511 999L440 1070L496.208 1126.21L552.417 1070L511 1028.58L469.583 1070L496.208 1096.62L522.833 1070L511 1058.17L499.167 1070" stroke="#051B4F" stroke-width="7"/>
<path d="M511 999L582 928L511 857L440 928L496.208 984.208L552.417 928L511 886.583L469.583 928L496.208 954.625L522.833 928L511 916.167L499.167 928" stroke="#051B4F" stroke-width="7"/>
<path d="M511 857L582 786L511 715L440 786L496.208 842.208L552.417 786L511 744.583L469.583 786L496.208 812.625L522.833 786L511 774.167L499.167 786" stroke="#051B4F" stroke-width="7"/>
<path d="M511 715L582 644L511 573L440 644L496.208 700.208L552.417 644L511 602.583L469.583 644L496.208 670.625L522.833 644L511 632.167L499.167 644" stroke="#051B4F" stroke-width="7"/>
<path d="M511 573L582 502L511 431L440 502L496.208 558.208L552.417 502L511 460.583L469.583 502L496.208 528.625L522.833 502L511 490.167L499.167 502" stroke="#051B4F" stroke-width="7"/>
<path d="M511 431L582 360L511 289L440 360L496.208 416.208L552.417 360L511 318.583L469.583 360L496.208 386.625L522.833 360L511 348.167L499.167 360" stroke="#051B4F" stroke-width="7"/>
<path d="M511 289L582 218L511 147L440 218L496.208 274.208L552.417 218L511 176.583L469.583 218L496.208 244.625L522.833 218L511 206.167L499.167 218" stroke="#051B4F" stroke-width="7"/>
<path d="M511 147L582 76L511 5L440 76L496.208 132.208L552.417 76L511 34.5833L469.583 76L496.208 102.625L522.833 76L511 64.1667L499.167 76" stroke="#051B4F" stroke-width="7"/>
<path d="M366 1283L437 1212L366 1141L295 1212L351.208 1268.21L407.417 1212L366 1170.58L324.583 1212L351.208 1238.62L377.833 1212L366 1200.17L354.167 1212" stroke="#051B4F" stroke-width="7"/>
<path d="M366 1141L437 1070L366 999L295 1070L351.208 1126.21L407.417 1070L366 1028.58L324.583 1070L351.208 1096.62L377.833 1070L366 1058.17L354.167 1070" stroke="#051B4F" stroke-width="7"/>
<path d="M366 999L437 928L366 857L295 928L351.208 984.208L407.417 928L366 886.583L324.583 928L351.208 954.625L377.833 928L366 916.167L354.167 928" stroke="#051B4F" stroke-width="7"/>
<path d="M366 857L437 786L366 715L295 786L351.208 842.208L407.417 786L366 744.583L324.583 786L351.208 812.625L377.833 786L366 774.167L354.167 786" stroke="#051B4F" stroke-width="7"/>
<path d="M366 715L437 644L366 573L295 644L351.208 700.208L407.417 644L366 602.583L324.583 644L351.208 670.625L377.833 644L366 632.167L354.167 644" stroke="#051B4F" stroke-width="7"/>
<path d="M366 573L437 502L366 431L295 502L351.208 558.208L407.417 502L366 460.583L324.583 502L351.208 528.625L377.833 502L366 490.167L354.167 502" stroke="#051B4F" stroke-width="7"/>
<path d="M366 431L437 360L366 289L295 360L351.208 416.208L407.417 360L366 318.583L324.583 360L351.208 386.625L377.833 360L366 348.167L354.167 360" stroke="#051B4F" stroke-width="7"/>
<path d="M366 289L437 218L366 147L295 218L351.208 274.208L407.417 218L366 176.583L324.583 218L351.208 244.625L377.833 218L366 206.167L354.167 218" stroke="#051B4F" stroke-width="7"/>
<path d="M366 147L437 76L366 5L295 76L351.208 132.208L407.417 76L366 34.5833L324.583 76L351.208 102.625L377.833 76L366 64.1667L354.167 76" stroke="#051B4F" stroke-width="7"/>
<path d="M221 1283L292 1212L221 1141L150 1212L206.208 1268.21L262.417 1212L221 1170.58L179.583 1212L206.208 1238.62L232.833 1212L221 1200.17L209.167 1212" stroke="#051B4F" stroke-width="7"/>
<path d="M221 1141L292 1070L221 999L150 1070L206.208 1126.21L262.417 1070L221 1028.58L179.583 1070L206.208 1096.62L232.833 1070L221 1058.17L209.167 1070" stroke="#051B4F" stroke-width="7"/>
<path d="M221 999L292 928L221 857L150 928L206.208 984.208L262.417 928L221 886.583L179.583 928L206.208 954.625L232.833 928L221 916.167L209.167 928" stroke="#051B4F" stroke-width="7"/>
<path d="M221 857L292 786L221 715L150 786L206.208 842.208L262.417 786L221 744.583L179.583 786L206.208 812.625L232.833 786L221 774.167L209.167 786" stroke="#051B4F" stroke-width="7"/>
<path d="M221 715L292 644L221 573L150 644L206.208 700.208L262.417 644L221 602.583L179.583 644L206.208 670.625L232.833 644L221 632.167L209.167 644" stroke="#051B4F" stroke-width="7"/>
<path d="M221 573L292 502L221 431L150 502L206.208 558.208L262.417 502L221 460.583L179.583 502L206.208 528.625L232.833 502L221 490.167L209.167 502" stroke="#051B4F" stroke-width="7"/>
<path d="M221 431L292 360L221 289L150 360L206.208 416.208L262.417 360L221 318.583L179.583 360L206.208 386.625L232.833 360L221 348.167L209.167 360" stroke="#051B4F" stroke-width="7"/>
<path d="M221 289L292 218L221 147L150 218L206.208 274.208L262.417 218L221 176.583L179.583 218L206.208 244.625L232.833 218L221 206.167L209.167 218" stroke="#051B4F" stroke-width="7"/>
<path d="M221 147L292 76L221 5L150 76L206.208 132.208L262.417 76L221 34.5833L179.583 76L206.208 102.625L232.833 76L221 64.1667L209.167 76" stroke="#051B4F" stroke-width="7"/>
<path d="M76 1283L147 1212L76 1141L5 1212L61.2083 1268.21L117.417 1212L76 1170.58L34.5833 1212L61.2083 1238.62L87.8333 1212L76 1200.17L64.1667 1212" stroke="#051B4F" stroke-width="7"/>
<path d="M76 1141L147 1070L76 999L5 1070L61.2083 1126.21L117.417 1070L76 1028.58L34.5833 1070L61.2083 1096.62L87.8333 1070L76 1058.17L64.1667 1070" stroke="#051B4F" stroke-width="7"/>
<path d="M76 999L147 928L76 857L5 928L61.2083 984.208L117.417 928L76 886.583L34.5833 928L61.2083 954.625L87.8333 928L76 916.167L64.1667 928" stroke="#051B4F" stroke-width="7"/>
<path d="M76 857L147 786L76 715L5 786L61.2083 842.208L117.417 786L76 744.583L34.5833 786L61.2083 812.625L87.8333 786L76 774.167L64.1667 786" stroke="#051B4F" stroke-width="7"/>
<path d="M76 715L147 644L76 573L5 644L61.2083 700.208L117.417 644L76 602.583L34.5833 644L61.2083 670.625L87.8333 644L76 632.167L64.1667 644" stroke="#051B4F" stroke-width="7"/>
<path d="M76 573L147 502L76 431L5 502L61.2083 558.208L117.417 502L76 460.583L34.5833 502L61.2083 528.625L87.8333 502L76 490.167L64.1667 502" stroke="#051B4F" stroke-width="7"/>
<path d="M76 431L147 360L76 289L5 360L61.2083 416.208L117.417 360L76 318.583L34.5833 360L61.2083 386.625L87.8333 360L76 348.167L64.1667 360" stroke="#051B4F" stroke-width="7"/>
<path d="M76 289L147 218L76 147L5 218L61.2083 274.208L117.417 218L76 176.583L34.5833 218L61.2083 244.625L87.8333 218L76 206.167L64.1667 218" stroke="#051B4F" stroke-width="7"/>
<path d="M76 147L147 76L76 5L5 76L61.2083 132.208L117.417 76L76 34.5833L34.5833 76L61.2083 102.625L87.8333 76L76 64.1667L64.1667 76" stroke="#051B4F" stroke-width="7"/>
</svg>
