<svg xmlns="http://www.w3.org/2000/svg" xmlns:xlink="http://www.w3.org/1999/xlink" viewBox="0,0,256,256" width="50px" height="50px" fill-rule="nonzero"><g fill="#000000" fill-rule="nonzero" stroke="none" stroke-width="1" stroke-linecap="butt" stroke-linejoin="miter" stroke-miterlimit="10" stroke-dasharray="" stroke-dashoffset="0" font-family="none" font-weight="none" font-size="none" text-anchor="none" style="mix-blend-mode: normal"><path d="M0,256v-256h256v256z" id="bgRectangle"></path></g><g fill="#88ce1f" fill-rule="nonzero" stroke="none" stroke-width="1" stroke-linecap="butt" stroke-linejoin="miter" stroke-miterlimit="10" stroke-dasharray="" stroke-dashoffset="0" font-family="none" font-weight="none" font-size="none" text-anchor="none" style="mix-blend-mode: normal"><g transform="scale(5.12,5.12)"><path d="M14,3.99023c-5.51133,0 -10,4.48867 -10,10v22c0,5.51133 4.48867,10 10,10h22c5.51133,0 10,-4.48867 10,-10v-22c0,-5.51133 -4.48867,-10 -10,-10zM25,8c9.39,0 17,7.61 17,17c0,9.39 -7.61,17 -17,17c-9.39,0 -17,-7.61 -17,-17c0,-9.39 7.61,-17 17,-17zM25,11c-1.1,0 -2.16931,0.12909 -3.19531,0.37109c-1.291,0.305 -1.90423,1.79631 -1.24023,2.94531l0.80273,1.38867c2.733,-1.063 5.90377,-0.94223 8.63477,0.63477c2.732,1.577 4.41247,4.26416 4.85547,7.16016h1.62109c1.315,0 2.30864,-1.25953 1.93164,-2.51953c-1.728,-5.772 -7.07716,-9.98047 -13.41016,-9.98047zM16.0332,14.82422c-0.44797,0.04166 -0.88448,0.23653 -1.22461,0.59766c-2.359,2.503 -3.80859,5.86812 -3.80859,9.57813c0,3.71 1.44959,7.07513 3.80859,9.57813c0.907,0.962 2.50111,0.7407 3.16211,-0.4043l0.79688,-1.37891c-2.287,-1.835 -3.76758,-4.64092 -3.76758,-7.79492c0,-3.155 1.48644,-5.95316 3.77344,-7.78516l-0.80078,-1.38867c-0.41375,-0.71562 -1.19284,-1.07139 -1.93945,-1.00195zM24.85547,17.01758c-0.84446,0.02007 -1.67961,0.17202 -2.47461,0.44727l2.9082,5.03516c0.357,0.619 1.01742,1 1.73242,1h5.81836c-0.423,-2.205 -1.75084,-4.22173 -3.83984,-5.42773c-1.305,-0.75313 -2.73709,-1.08813 -4.14453,-1.05469zM19.78125,18.96094c-1.698,1.469 -2.78125,3.62706 -2.78125,6.03906c0,2.411 1.0872,4.56616 2.7832,6.03516l2.9082,-5.03516c0.357,-0.619 0.357,-1.381 0,-2zM27.01953,26.5c-0.714,0 -1.37542,0.381 -1.73242,1l-2.9082,5.03906c2.122,0.736 4.53209,0.59467 6.62109,-0.61133c2.088,-1.205 3.41194,-3.22473 3.83594,-5.42773zM34.86523,26.5c-0.446,2.898 -2.13423,5.58316 -4.86523,7.16016c-2.733,1.578 -5.90086,1.689 -8.63086,0.625l-0.80469,1.39844c-0.663,1.149 -0.05077,2.64031 1.24023,2.94531c1.026,0.242 2.09531,0.37109 3.19531,0.37109c6.333,0 11.68216,-4.20847 13.41016,-9.98047c0.377,-1.26 -0.61564,-2.51953 -1.93164,-2.51953z"></path></g></g></svg>